# xmcd
#
# Track frame offsets: 
#        150
#        17663
#        32394
#        47470
#        64022
#        81609
#        96119
#        111667
#        128522
#        141077
#        158011
#        173928
#
# Disc length: 2478 seconds
#
# Revision: 0
# Processed by: cddbd v1.5.2PL0 Copyright (c) Steve Scherf et al.
# Submitted via: ExactAudioCopy v1.1
#
DISCID=9709ac0c
DTITLE=Jody Direen - Here We Go
DYEAR=2011
DGENRE=Country
TTITLE0=Comin' To Town
TTITLE1=No Way Out
TTITLE2=Here We Go
TTITLE3=So Sorry Mama
TTITLE4=Sing It For You
TTITLE5=Tow My Float
TTITLE6=Anyman Of Mine
TTITLE7=Why Wait
TTITLE8=Two More Bottles Of Wine
TTITLE9=With Me Tonight
TTITLE10=Flat Out Country
TTITLE11=Do You Wanna Make Something Of It
EXTD=
EXTT0=
EXTT1=
EXTT2=
EXTT3=
EXTT4=
EXTT5=
EXTT6=
EXTT7=
EXTT8=
EXTT9=
EXTT10=
EXTT11=
PLAYORDER=
